<svg width="18" height="18" viewBox="0 0 18 18" fill="none" xmlns="http://www.w3.org/2000/svg">
<path d="M9.00011 5.93994C7.33511 5.93994 5.98511 7.28994 5.98511 8.95494C5.98511 10.6199 7.33511 11.9699 9.00011 11.9699C10.6651 11.9699 12.0151 10.6199 12.0151 8.95494C12.0151 7.28994 10.6651 5.93994 9.00011 5.93994Z" fill="#312930"/>
<path d="M12.15 0H5.85C2.655 0 0 2.655 0 5.85V12.105C0 15.345 2.655 17.955 5.85 17.955H12.105C15.345 17.955 17.955 15.3 17.955 12.105V5.85C18 2.655 15.345 0 12.15 0ZM9 13.68C6.435 13.68 4.32 11.61 4.32 9C4.32 6.39 6.435 4.32 9 4.32C11.565 4.32 13.68 6.39 13.68 9C13.68 11.565 11.61 13.68 9 13.68ZM13.59 5.445C12.96 5.445 12.465 4.905 12.465 4.32C12.465 3.735 13.005 3.15 13.59 3.15C14.22 3.15 14.715 3.69 14.715 4.275C14.715 4.95 14.22 5.445 13.59 5.445Z" fill="#312930"/>
</svg>
