<svg width="14" height="24" viewBox="0 0 14 24" fill="none" xmlns="http://www.w3.org/2000/svg">
<path d="M9.98749 16.4999C9.98749 16.4999 9.26749 16.5599 9.50749 16.9799C9.68749 17.3999 12.6275 19.9799 12.8075 20.6999C12.9875 21.4199 13.2875 21.6599 12.3275 22.6199C11.3675 23.5199 10.6475 23.3399 9.02749 21.7199C7.46749 20.0399 6.68749 19.3799 6.68749 19.3799C6.68749 19.3799 5.90749 20.0999 4.34749 21.7199C2.78749 23.3999 2.00749 23.5799 1.04749 22.6199C0.0874937 21.7199 0.387494 21.5399 0.567494 20.6999C0.747494 19.9799 3.68749 17.3399 3.86749 16.9799C4.04749 16.5599 3.38749 16.4999 3.38749 16.4999C-1.05251 15.9599 0.147494 13.1999 0.147494 13.1999C1.22749 11.5199 3.02749 12.7199 3.02749 12.7199C4.82749 13.9799 6.80749 13.6199 6.80749 13.6199C6.80749 13.6199 8.78749 13.9199 10.5875 12.7199C10.5875 12.7199 12.2675 11.4599 13.4675 13.1999C13.3475 13.1999 14.5475 15.9599 9.98749 16.4999ZM6.68749 11.9399C3.62749 11.9399 1.16749 9.4199 1.16749 6.4199C1.16749 3.4199 3.68749 0.899902 6.68749 0.899902C9.68749 0.899902 12.2075 3.4199 12.2075 6.4199C12.2075 9.4199 9.74749 11.9399 6.68749 11.9399ZM6.68749 4.0799C5.36749 4.0799 4.40749 5.0999 4.40749 6.3599C4.40749 7.6199 5.42749 8.6399 6.68749 8.6399C7.94749 8.6399 8.96749 7.6199 8.96749 6.3599C8.96749 5.0999 8.00749 4.0799 6.68749 4.0799Z" fill="#312930"/>
</svg>
