<svg width="28" height="17" viewBox="0 0 28 17" fill="none" xmlns="http://www.w3.org/2000/svg">
<path d="M27.999 0.289873C27.999 0.38378 27.969 0.47002 27.905 0.548595C27.843 0.625253 27.775 0.665499 27.7 0.665499C27.088 0.721076 26.5851 0.911764 26.1951 1.23564C25.8051 1.55953 25.4021 2.17758 24.9851 3.08982L18.6293 16.8088C18.5873 16.9362 18.4693 17.0004 18.2794 17.0004C18.2087 17.0017 18.1389 16.9845 18.0777 16.9508C18.0164 16.917 17.9658 16.8679 17.9314 16.8088L14.3635 9.68147L10.2676 16.8059C10.233 16.8654 10.1822 16.9146 10.1205 16.9484C10.0588 16.9822 9.98867 16.9992 9.91765 16.9975C9.73566 16.9975 9.61466 16.9333 9.55766 16.8059L3.31489 3.08982C2.9249 2.23316 2.51291 1.63523 2.08093 1.29506C1.65095 0.954884 1.05097 0.745032 0.276995 0.664541C0.210997 0.664541 0.147 0.629086 0.0900017 0.562968C0.0315753 0.499487 -0.000455607 0.417636 4.89726e-06 0.332994C4.89726e-06 0.116434 0.0660026 0.00719585 0.199998 0.00719585C0.755978 0.00719585 1.33996 0.0311518 1.94594 0.0790633C2.51091 0.126975 3.0429 0.148056 3.54188 0.148056C4.04886 0.148056 4.64684 0.1241 5.33781 0.0761883C5.97674 0.0310207 6.61709 0.00673173 7.25774 0.00336322C7.38974 0.00336322 7.45574 0.113559 7.45574 0.332994C7.45574 0.55147 7.41574 0.660708 7.33174 0.660708C6.77476 0.699037 6.33678 0.836063 6.01679 1.06795C5.6968 1.3008 5.53681 1.60456 5.53681 1.98115C5.53681 2.17279 5.6038 2.41235 5.7368 2.69982L10.8286 13.8919L13.8185 8.56418L11.0866 3.08503C10.5966 2.09997 10.1926 1.46562 9.87665 1.18198C9.56166 0.897391 9.08368 0.723951 8.4447 0.65975C8.3847 0.65975 8.32871 0.626212 8.27471 0.560094C8.2212 0.494553 8.19294 0.413318 8.19471 0.330119C8.19471 0.113559 8.25171 0.00432137 8.3687 0.00432137C8.92468 0.00432137 9.43567 0.0273187 9.90165 0.0752302C10.3496 0.123142 10.8276 0.146139 11.3346 0.146139C11.8326 0.146139 12.3596 0.121225 12.9165 0.0733139C13.4798 0.0255734 14.045 0.00127518 14.6105 0.000488281C14.7435 0.000488281 14.8105 0.110685 14.8105 0.329161C14.8105 0.549553 14.7685 0.656875 14.6855 0.656875C13.5725 0.728742 13.0155 1.0325 13.0155 1.56911C13.0155 1.80867 13.1455 2.18237 13.4015 2.6864L15.2075 6.19831L17.0074 2.99304C17.2554 2.53596 17.3804 2.15171 17.3804 1.83933C17.3804 1.10341 16.8234 0.711494 15.7104 0.663582C15.6104 0.663582 15.5604 0.55147 15.5604 0.332036C15.5604 0.255377 15.5854 0.178719 15.6354 0.109726C15.6854 0.0388173 15.7354 0.00432137 15.7854 0.00432137C16.1854 0.00432137 16.6754 0.0273187 17.2554 0.0752302C17.8124 0.123142 18.2694 0.147097 18.6253 0.147097C18.8833 0.147097 19.2613 0.127933 19.7603 0.0896035C20.3903 0.0340262 20.9203 0.00623769 21.3422 0.00623769C21.4422 0.00623769 21.4922 0.0991861 21.4922 0.286999C21.4922 0.536138 21.4002 0.662624 21.2182 0.662624C20.5733 0.724909 20.0483 0.896432 19.6583 1.17623C19.2623 1.457 18.7703 2.09326 18.1804 3.08311L15.7904 7.32806L19.0263 13.6524L23.8162 2.9892C23.9821 2.59633 24.0661 2.23604 24.0661 1.90832C24.0661 1.12257 23.5082 0.707661 22.3962 0.65975C22.2962 0.65975 22.2462 0.549553 22.2462 0.330119C22.2462 0.112601 22.3202 0.00432137 22.4702 0.00432137C22.8762 0.00432137 23.3572 0.0282769 23.9141 0.0761883C24.4291 0.122183 24.8611 0.146139 25.2101 0.146139C25.5751 0.146139 26.0001 0.121225 26.4801 0.074272C26.978 0.0263606 27.426 0.00144644 27.825 0.00144644C27.942 0.00144644 28 0.0943948 28 0.282208L27.999 0.289873Z" fill="#EE7754"/>
</svg>
