<svg width="20" height="18" viewBox="0 0 20 18" fill="none" xmlns="http://www.w3.org/2000/svg">
<path d="M17.9002 3.65015L19.9002 3.25015C19.9002 3.25015 18.2502 5.10015 17.9002 5.25015C17.8502 6.15015 17.9002 6.45015 17.9002 6.45015C14.1002 22.8001 0.000213623 15.5501 0.000213623 15.5501C5.15021 15.6501 5.55021 13.5501 5.55021 13.5501C2.55021 13.1001 1.95021 11.1501 1.95021 11.1501C3.00021 11.6501 3.55021 10.7501 3.55021 10.7501C0.350214 9.90015 0.750214 6.80015 0.750214 6.80015C1.30021 7.30015 2.20021 7.50015 2.70021 7.55015C2.40021 7.15015 -0.599786 3.50015 1.20021 1.65015C1.20021 1.65015 3.45021 5.65015 9.25021 6.00015L9.65021 5.90015C9.55021 5.60015 9.55021 5.35015 9.55021 5.05015C9.55021 2.75015 11.4002 0.900146 13.7002 0.900146C16.5002 0.900146 17.1002 2.50015 17.1002 2.50015L19.1002 1.30015C19.1002 1.25015 18.9002 3.25015 17.9002 3.65015Z" fill="#EE7754"/>
</svg>
