<svg width="26" height="16" viewBox="0 0 26 16" fill="none" xmlns="http://www.w3.org/2000/svg">
<path d="M12.4831 15.2102H14.0231C14.0231 15.2102 14.5131 15.1402 14.7231 14.9302C14.9331 14.7202 14.9331 14.2302 14.9331 14.2302C14.9331 14.2302 14.9331 12.2002 15.8431 11.9202C16.7531 11.6402 18.0131 13.8802 19.2731 14.7902C20.2531 15.4202 20.9531 15.2802 20.9531 15.2802L24.3831 15.2102C24.3831 15.2102 26.1331 15.0702 25.2931 13.6702C25.2231 13.5302 24.8031 12.6202 22.7731 10.7302C20.6731 8.77021 20.9531 9.05021 23.4731 5.62021C25.0131 3.52021 25.6431 2.26021 25.4331 1.70021C25.2231 1.21021 24.1031 1.35021 24.1031 1.35021H20.2531C20.2531 1.35021 19.9731 1.28021 19.7631 1.42021C19.5531 1.56021 19.4131 1.84021 19.4131 1.84021C19.4131 1.84021 18.7831 3.45021 18.0131 4.85021C16.3331 7.72021 15.6331 7.93021 15.3531 7.72021C14.7231 7.37021 14.8631 6.11021 14.8631 5.20021C14.8631 2.40021 15.2831 1.21021 14.0231 0.930214C13.6031 0.860214 13.3231 0.790215 12.2031 0.720215C10.8032 0.720215 9.68315 0.720215 9.05315 1.07021C8.63315 1.28021 8.28315 1.77021 8.49315 1.77021C8.77315 1.77021 9.33315 1.91021 9.61315 2.33021C10.0331 2.89021 9.96315 4.08021 9.96315 4.08021C9.96315 4.08021 10.1731 7.37021 9.40315 7.79021C8.91315 8.07021 8.21315 7.51021 6.67315 4.85021C5.90315 3.52021 5.27315 2.05021 5.27315 2.05021C5.27315 2.05021 5.27315 1.77021 5.06315 1.63021C4.78315 1.42021 4.50315 1.42021 4.50315 1.42021H0.86315C0.86315 1.42021 0.30315 1.42021 0.0931502 1.70021C-0.11685 1.91021 0.0931502 2.33021 0.0931502 2.33021C0.0931502 2.33021 2.96315 8.98021 6.18315 12.3402C9.12315 15.4202 12.4831 15.2102 12.4831 15.2102Z" fill="#EE7754"/>
</svg>
